<svg version="1.2" xmlns="http://www.w3.org/2000/svg" viewBox="0 0 42 42" width="42" height="42">
	<title>Instagram Icon</title>
	<defs>
		<clipPath clipPathUnits="userSpaceOnUse" id="cp1">
			<path d="m0 0h42v42h-42z"/>
		</clipPath>
	</defs>
	<style>
		.s0 { fill: #000000 } 
	</style>
	<g id="Clip-Path: Gruppe_2610" clip-path="url(#cp1)">
		<g id="Gruppe_2610">
			<path id="Pfad_1770" class="s0" d="m32.3 12.2q-0.2-0.5-0.5-0.9-0.3-0.4-0.6-0.8-0.4-0.3-0.8-0.6-0.5-0.3-0.9-0.5-0.4-0.1-0.7-0.2-0.3-0.1-0.7-0.1-0.3-0.1-0.7-0.1-0.3-0.1-0.6-0.1c-1.6 0-2.1-0.1-6-0.1q-0.7 0-1.3 0c-2.7 0-3.2 0.1-4.6 0.1q-0.3 0-0.7 0.1-0.3 0-0.7 0.1-0.3 0-0.6 0.1-0.4 0.1-0.7 0.2-0.5 0.2-0.9 0.5-0.4 0.3-0.8 0.6-0.3 0.4-0.6 0.8-0.3 0.4-0.5 0.9-0.1 0.3-0.2 0.7-0.1 0.3-0.1 0.6-0.1 0.4-0.1 0.7-0.1 0.4-0.1 0.7c0 1.6-0.1 2-0.1 5.9 0 4 0.1 4.4 0.1 6q0 0.3 0.1 0.6 0 0.4 0.1 0.7 0 0.4 0.1 0.7 0.1 0.3 0.2 0.7 0.2 0.4 0.5 0.9 0.3 0.4 0.6 0.8 0.4 0.3 0.8 0.6 0.4 0.3 0.9 0.4 0.3 0.2 0.7 0.3 0.3 0 0.6 0.1 0.4 0.1 0.7 0.1 0.4 0 0.7 0c1.6 0.1 2 0.1 5.9 0.1 4 0 4.4 0 6-0.1q0.3 0 0.7 0 0.3 0 0.6-0.1 0.4 0 0.7-0.1 0.3-0.1 0.7-0.3 0.4-0.1 0.9-0.4 0.4-0.3 0.8-0.7 0.3-0.3 0.6-0.7 0.3-0.5 0.5-0.9 0.1-0.4 0.2-0.7 0.1-0.3 0.1-0.7 0.1-0.3 0.1-0.7 0-0.3 0.1-0.7c0-1.5 0-2 0-5.9 0-3.9 0-4.3 0-5.9q-0.1-0.3-0.1-0.7 0-0.3-0.1-0.7 0-0.3-0.1-0.6-0.1-0.4-0.2-0.7zm-11.5 16.2c-3 0-5.7-1.9-6.9-4.7-1.2-2.8-0.5-6 1.6-8.2 2.2-2.1 5.4-2.8 8.2-1.6 2.8 1.2 4.7 3.9 4.7 6.9q-0.1 1.5-0.6 2.9-0.6 1.4-1.7 2.4-1 1.1-2.4 1.7-1.4 0.5-2.9 0.6zm7.9-13.6c-0.5 0-1-0.2-1.3-0.5-0.3-0.4-0.5-0.8-0.5-1.3 0-0.4 0.2-0.9 0.5-1.2 0.3-0.3 0.8-0.5 1.3-0.5 0.4 0 0.9 0.1 1.2 0.5 0.4 0.3 0.5 0.8 0.5 1.2 0 0.5-0.1 0.9-0.5 1.3-0.3 0.3-0.8 0.5-1.2 0.5z"/>
			<path id="Pfad_1771" class="s0" d="m20.8 16c-1.9 0-3.7 1.1-4.5 3-0.7 1.8-0.3 3.9 1.1 5.3 1.4 1.4 3.5 1.8 5.3 1 1.8-0.7 3-2.5 3-4.5q0-0.9-0.4-1.8-0.3-0.9-1-1.6-0.7-0.7-1.6-1.1-0.9-0.3-1.9-0.3z"/>
			<path id="Pfad_1772" class="s0" d="m20.8 0c-8.4 0-16 5.1-19.2 12.9-3.2 7.7-1.5 16.7 4.5 22.7 6 5.9 14.9 7.7 22.7 4.5 7.8-3.2 12.9-10.8 12.9-19.3 0-2.7-0.6-5.4-1.6-7.9-1.1-2.6-2.6-4.9-4.5-6.8-2-1.9-4.3-3.5-6.8-4.5-2.5-1.1-5.2-1.6-8-1.6zm14.6 26.9q0 0.4-0.1 0.9 0 0.4-0.1 0.9-0.1 0.4-0.2 0.9-0.1 0.4-0.3 0.8-0.3 0.8-0.7 1.4-0.4 0.7-1 1.2-0.5 0.6-1.2 1-0.6 0.4-1.4 0.7-0.4 0.2-0.8 0.3-0.5 0.1-0.9 0.2-0.5 0.1-0.9 0.1-0.5 0.1-0.9 0.1c-1.6 0.1-2.1 0.1-6.1 0.1-3.9 0-4.4 0-6-0.1q-0.5 0-0.9-0.1-0.5 0-0.9-0.1-0.5-0.1-0.9-0.2-0.4-0.1-0.9-0.3-0.7-0.3-1.3-0.7-0.7-0.4-1.2-1-0.6-0.5-1-1.2-0.5-0.6-0.7-1.4-0.2-0.4-0.3-0.8-0.1-0.5-0.2-0.9-0.1-0.5-0.2-0.9 0-0.5 0-0.9c-0.1-1.6-0.1-2.1-0.1-6.1 0-3.9 0-4.4 0.1-6q0-0.5 0-0.9 0.1-0.5 0.2-0.9 0.1-0.5 0.2-0.9 0.1-0.4 0.3-0.9 0.2-0.7 0.7-1.3 0.4-0.7 1-1.2 0.5-0.6 1.2-1 0.6-0.5 1.3-0.7 0.5-0.2 0.9-0.3 0.4-0.1 0.9-0.2 0.4-0.1 0.9-0.2 0.4 0 0.9 0c1.6-0.1 2.1-0.1 6-0.1 4 0 4.5 0 6.1 0.1q0.4 0 0.9 0 0.4 0.1 0.9 0.2 0.4 0.1 0.9 0.2 0.4 0.1 0.8 0.3 0.7 0.3 1.4 0.7 0.7 0.4 1.2 1 0.6 0.5 1 1.2 0.4 0.6 0.7 1.3 0.2 0.5 0.3 0.9 0.1 0.4 0.2 0.9 0.1 0.4 0.1 0.9 0.1 0.4 0.1 0.9c0.1 1.6 0.1 2.1 0.1 6 0 4 0 4.5-0.1 6.1z"/>
		</g>
	</g>
</svg>