<svg version="1.2" xmlns="http://www.w3.org/2000/svg" viewBox="0 0 42 42" width="42" height="42">
	<title>Kelloggs TikTok Icon</title>
	<defs>
		<clipPath clipPathUnits="userSpaceOnUse" id="cp1">
			<path d="m0 0h42v42h-42z"/>
		</clipPath>
	</defs>
	<style>
		.s0 { fill: #000000 } 
	</style>
	<g id="Clip-Path: Gruppe_2614" clip-path="url(#cp1)">
		<g id="Gruppe_2614">
			<path id="Pfad_1775" class="s0" d="m20.8 0c-8.4 0-16 5.1-19.2 12.9-3.2 7.7-1.5 16.7 4.5 22.7 6 5.9 14.9 7.7 22.7 4.5 7.8-3.2 12.9-10.8 12.9-19.3 0-2.7-0.6-5.4-1.6-7.9-1.1-2.6-2.6-4.9-4.5-6.8-2-1.9-4.3-3.5-6.8-4.5-2.5-1.1-5.2-1.6-8-1.6zm12.1 18.4q-0.9 0-1.8-0.2-0.8-0.1-1.7-0.4-0.8-0.2-1.6-0.6-0.8-0.4-1.5-0.9v9.6c0 3.7-2.3 6.9-5.7 8.2-3.4 1.3-7.3 0.3-9.7-2.4-2.4-2.8-2.8-6.7-1.1-9.9 1.8-3.3 5.3-5.1 8.9-4.6v4.9c-1.6-0.5-3.4 0.1-4.4 1.5-1 1.4-1 3.3 0 4.7 1 1.4 2.8 1.9 4.5 1.4 1.6-0.5 2.7-2.1 2.7-3.8v-18.9h4.8v0.6q0.1 1.3 0.6 2.4 0.6 1.1 1.5 1.9 0.9 0.8 2.1 1.3 1.1 0.4 2.4 0.4z"/>
		</g>
	</g>
</svg>