<svg version="1.2" xmlns="http://www.w3.org/2000/svg" viewBox="0 0 42 42" width="42" height="42">
	<title>YouTube Icon</title>
	<defs>
		<clipPath clipPathUnits="userSpaceOnUse" id="cp1">
			<path d="m0 0h42v42h-42z"/>
		</clipPath>
	</defs>
	<style>
		.s0 { fill: #000000 } 
	</style>
	<g id="Clip-Path: Gruppe_2612" clip-path="url(#cp1)">
		<g id="Gruppe_2612">
			<path id="Pfad_1773" class="s0" d="m25.6 20.7l-8.6-4.4q0 0-0.1 0-0.1 0-0.2 0.1-0.1 0-0.1 0.1-0.1 0.1-0.1 0.1v8.4q0 0.1 0.1 0.2 0 0.1 0.1 0.1 0.1 0.1 0.2 0.1 0.1 0 0.1 0l8.6-4.1q0.1-0.1 0.1-0.1 0.1-0.1 0.1-0.2 0-0.1-0.1-0.2 0-0.1-0.1-0.1z"/>
			<path id="Pfad_1774" class="s0" d="m20.8 0c-8.4 0-16 5.1-19.2 12.9-3.2 7.7-1.5 16.7 4.5 22.7 6 5.9 14.9 7.7 22.7 4.5 7.8-3.2 12.9-10.8 12.9-19.3 0-2.7-0.6-5.4-1.6-7.9-1.1-2.6-2.6-4.9-4.5-6.8-2-1.9-4.3-3.5-6.8-4.5-2.5-1.1-5.2-1.6-8-1.6zm9.2 31.9h-18.3q-1.3 0-2.5-0.5-1.2-0.5-2.1-1.4-0.9-0.9-1.4-2.1-0.5-1.2-0.5-2.5v-9.1q0-1.3 0.5-2.5 0.5-1.2 1.4-2.1 0.9-0.9 2.1-1.4 1.2-0.5 2.5-0.5h18.3q1.2 0 2.4 0.5 1.2 0.5 2.1 1.4 1 0.9 1.5 2.1 0.4 1.2 0.4 2.5v9.1q0 1.3-0.5 2.5-0.4 1.2-1.4 2.1-0.9 0.9-2.1 1.4-1.2 0.5-2.4 0.5z"/>
		</g>
	</g>
</svg>