<?xml version="1.0" encoding="UTF-8"?>
<svg id="Ebene_3" data-name="Ebene 3" xmlns="http://www.w3.org/2000/svg" viewBox="0 0 385 385">
  <defs>
    <style>
      .cls-1 {
        fill: #8000ff;
      }
    </style>
  </defs>
  <polygon class="cls-1" points="383.8 279.41 217.75 140.16 217.88 356.78 275.97 329.69 301.76 385 351.5 361.81 325.71 306.5 383.8 279.41"/>
  <path class="cls-1" d="M0,0v252.46h199.82l-.07-112.29-.02-38.62,29.59,24.81,23.14,19.4V0H0ZM32.62,61.58h124.96l-16.59,70.42H49.21l-16.59-70.42ZM68.84,223.99c-10.15,0-18.37-8.23-18.37-18.37s8.23-18.37,18.37-18.37,18.37,8.23,18.37,18.37-8.23,18.37-18.37,18.37ZM146.85,223.99c-10.15,0-18.37-8.23-18.37-18.37s8.23-18.37,18.37-18.37,18.37,8.23,18.37,18.37-8.23,18.37-18.37,18.37ZM217.01,51.28h-19.12l-27.63,117.39H50.21v-18h105.8l27.63-117.39h33.37v18Z"/>
</svg>