<?xml version="1.0" encoding="UTF-8"?>
<svg id="Ebene_5" data-name="Ebene 5" xmlns="http://www.w3.org/2000/svg" viewBox="0 0 385 385">
  <defs>
    <style>
      .cls-1 {
        fill: #215cdd;
      }
    </style>
  </defs>
  <polygon class="cls-1" points="273.2 115.63 193.37 35.8 193.2 35.8 193.2 115.79 273.2 115.79 273.2 115.63"/>
  <path class="cls-1" d="M273.2,174.81v-43.01h-96V35.8H33.2v312h240v-77.49l-41.43,41.43-47.89-.05.18-47.73,89.14-89.14ZM68.73,70.6h90.14v16h-90.14v-16ZM68.73,115.84h90.14v16h-90.14v-16ZM68.73,161.07h168.93v16H68.73v-16ZM165.64,312.11h-96.91v-16h96.91v16ZM165.64,267.55h-96.91v-16h96.91v16ZM68.73,222.31v-16h136.48v16H68.73Z"/>
  <g>
    <rect class="cls-1" x="212.36" y="185.38" width="162.33" height="33.71" transform="translate(-57.03 266.78) rotate(-45)"/>
    <polygon class="cls-1" points="212.9 259.02 200.94 270.98 200.85 294.79 224.78 294.81 236.73 282.85 212.9 259.02"/>
  </g>
</svg>