<svg xmlns="http://www.w3.org/2000/svg" width="376.218" height="318.28" viewBox="0 0 376.218 318.28">
  <g id="Icon_Cerealien" transform="translate(-98.3 -287.4)">
    <path id="Path_76" data-name="Path 76" d="M1144.45,463.592H1012.1l38.589-56.792h126.343Z" transform="translate(-744.603 -94.803)" fill="none" stroke="#fff" stroke-linecap="round" stroke-linejoin="round" stroke-width="7"/>
    <path id="Path_77" data-name="Path 77" d="M1055.6,312l.31-21.1h126.161l-.127,21.1,38.352,57.046.237,232.5H1018.1" transform="translate(-749.511)" fill="none" stroke="#fff" stroke-linecap="round" stroke-linejoin="round" stroke-width="7"/>
    <line id="Line_67" data-name="Line 67" x1="0.127" y2="216.773" transform="translate(432.611 384.77)" fill="none" stroke="#fff" stroke-linecap="round" stroke-linejoin="round" stroke-width="7"/>
    <line id="Line_68" data-name="Line 68" y2="63.144" transform="translate(267.497 368.788)" fill="none" stroke="#fff" stroke-linecap="round" stroke-linejoin="round" stroke-width="7"/>
    <line id="Line_69" data-name="Line 69" y1="234.211" x2="0.182" transform="translate(400.265 367.332)" fill="none" stroke="#fff" stroke-linecap="round" stroke-linejoin="round" stroke-width="7"/>
    <path id="Path_78" data-name="Path 78" d="M101.8,1379.4H314.823v34.858a61.813,61.813,0,0,1-61.779,61.779H163.6a61.813,61.813,0,0,1-61.779-61.779V1379.4H101.8Z" transform="translate(0 -890.366)" fill="none" stroke="#fff" stroke-linecap="round" stroke-linejoin="round" stroke-width="7"/>
    <path id="Path_79" data-name="Path 79" d="M563.78,1910.3v16.51H493.3V1910.3" transform="translate(-320.237 -1324.63)" fill="none" stroke="#fff" stroke-linecap="round" stroke-linejoin="round" stroke-width="7"/>
    <path id="Path_80" data-name="Path 80" d="M503.181,921.569c-5.643-7.645,21.752-28.6,27.777-21.752S510.1,930.962,503.181,921.569Z" transform="translate(-327.697 -496.973)" fill="none" stroke="#fff" stroke-linecap="round" stroke-linejoin="round" stroke-width="7"/>
    <path id="Path_81" data-name="Path 81" d="M720.92,985.02c1.347-8.792,28.2-12.086,28.2-.8S719.318,995.487,720.92,985.02Z" transform="translate(-506.374 -561.224)" fill="none" stroke="#fff" stroke-linecap="round" stroke-linejoin="round" stroke-width="7"/>
    <path id="Path_82" data-name="Path 82" d="M1179.1,1025.346s8.045-35.44,37.442-33.42c33.8,2.312,46.762,55.263,37.843,90.594-11.158,44.286-38.535,43.012-38.535,43.012" transform="translate(-881.205 -573.354)" fill="none" stroke="#fff" stroke-linecap="round" stroke-linejoin="round" stroke-width="7"/>
    <path id="Path_83" data-name="Path 83" d="M162.616,850.235s-34.8-76.587-44.25-98.712,16.5-26.093,21.3-10.867c6.81,19.381,35.841,108.377,35.841,108.377s.328-17.62,9.593-22.443,14.853-2.112,14.853-2.112.51-18.53,17.019-18.93c14.944-.364,18.111,12.086,18.111,12.086a19.612,19.612,0,0,1,21.333-10.466c9.665,1.6,13.288,10.867,13.288,10.867s8.592-6.5,19.731.4c8.464,5.242,6.444,14.908,6.444,14.908s8.464-2.821,16.109,5.643,4.824,12.086,4.824,12.086" transform="translate(-12.107 -361.602)" fill="none" stroke="#fff" stroke-linecap="round" stroke-linejoin="round" stroke-width="7"/>
  </g>
</svg>
