<svg version="1.2" xmlns="http://www.w3.org/2000/svg" viewBox="0 0 243 92" width="243" height="92">
	<title>Kelloggs Logo</title>
	<style>
		.s0 { fill: #ffffff } 
		.s1 { fill: #d21246 } 
		.s2 { fill: #f60b45 } 
		.s3 { fill: none } 
	</style>
	<g id="Gruppe_2410">
		<path id="Pfad_1658" class="s0" d="m240.8 32q-1.2-1.1-2.6-1.9-1.4-0.8-3-1.2-1.7-0.4-3.3-0.2-1.6 0.1-3.2 0.7-1.3 0.5-2.6 1.1 0 0 0-0.1 0 0 0-0.1 0 0 0 0 0-0.1 0-0.1c0 0 0.1-0.4 0.1-0.4q0.2-0.8 0.3-1.6 0.1-0.8 0-1.6-0.1-0.7-0.2-1.5-0.2-0.8-0.5-1.5c-2.5-6-6.4-6.7-10.2-6.9-4-0.2-8.8 2.9-10.1 6.5q-0.2 0.5-0.4 1-0.1 0.5-0.2 1-0.1 0.5-0.2 1.1 0 0.5 0 1 0 0.8 0.1 1.6 0.1 0.7 0.4 1.5 0.3 0.7 0.6 1.4 0.4 0.7 0.9 1.3-0.3 0.4-0.4 0.8-0.2 0.4-0.3 0.8-0.2 0.4-0.2 0.8-0.1 0.5-0.1 0.9v0.1c-0.1-0.1-0.2-0.1-0.3-0.2q-0.3-1.1-0.9-2.1-0.7-0.9-1.6-1.6-1-0.7-2.1-1.1-1.1-0.3-2.2-0.3-2.6 0.2-5.1 0.7-2.4 0.6-4.8 1.5-2.4 0.9-4.6 2.1-2.2 1.3-4.2 2.8 0-0.2-0.1-0.5-0.1-0.2-0.2-0.5-0.1-0.2-0.2-0.4-0.2-0.3-0.3-0.5-0.5-0.9-1.3-1.6-0.8-0.8-1.8-1.3-0.9-0.4-2-0.6-1-0.2-2.1-0.1-0.3 0-0.6 0.1-0.3 0-0.6 0.1-0.3 0.1-0.6 0.1-0.3 0.1-0.5 0.2-0.3-0.2-0.6-0.4-0.3-0.1-0.7-0.3-0.3-0.1-0.6-0.2-0.3-0.1-0.7-0.2c-4.7-1-8.5 0.5-11.5 1.6-2.5 1-4.6 1.8-7.3 1.6q-0.5-0.1-1-0.2-0.5-0.1-1-0.2-0.5-0.1-1-0.3-0.5-0.1-1-0.2-0.8-0.3-1.6-0.5-0.8-0.2-1.6-0.4-0.8-0.1-1.6-0.2-0.9-0.1-1.7-0.1-0.1 0-0.3 0.1-0.1 0-0.2 0-0.1 0-0.3 0-0.1 0-0.2 0.1-0.7-0.5-1.5-0.9-0.8-0.3-1.6-0.5-0.8-0.2-1.7-0.2-0.8 0-1.7 0.2-1.2 0.2-2.4 0.5 0-0.1 0.1-0.1 0-0.1 0-0.1 0.1-0.1 0.1-0.1 0 0 0-0.1l1.8-2.7c2.5-3.8 5.2-8.1 5.2-14.2 0-0.6 0-1.3 0-2q-0.1-0.9-0.3-1.7-0.3-0.9-0.7-1.6-0.4-0.8-0.9-1.5-0.6-0.7-1.3-1.3-0.6-0.5-1.3-0.8-0.8-0.4-1.5-0.6-0.8-0.2-1.6-0.3-0.9 0-1.7 0.1c-6.4 0.8-12.3 4.3-17.5 9.1q-0.4-0.6-0.8-1.2-0.5-0.5-1-0.9-0.5-0.5-1.1-0.8-0.6-0.4-1.2-0.7c-12.9-5.5-25.9 10.4-32.6 22.4-0.2-0.1-0.3-0.3-0.5-0.5q-0.6-0.5-1.3-0.9-0.6-0.4-1.3-0.7-0.8-0.3-1.5-0.4-0.8-0.2-1.6-0.3 2.1-1.5 4-3.2 1.9-1.8 3.6-3.7 1.7-1.9 3.2-4 1.5-2.1 2.8-4.3 0.4-0.6 0.7-1.3 0.3-0.7 0.5-1.4 0.2-0.7 0.3-1.5 0.1-0.7 0.1-1.4 0-0.6-0.1-1.1-0.1-0.6-0.2-1.1-0.1-0.5-0.3-1-0.1-0.5-0.4-1-0.7-1.6-1.9-2.8-1.2-1.2-2.8-1.9-1.5-0.8-3.2-1-1.7-0.1-3.4 0.3-1 0.3-2 0.7-1 0.4-2 1-0.9 0.6-1.7 1.3-0.9 0.7-1.6 1.5c0 0-5.2 6.1-5.2 6.1-1.2 1.3-2.3 2.7-3.5 4q0-0.2-0.1-0.3 0-0.2-0.1-0.3 0-0.2-0.1-0.3 0-0.2-0.1-0.3-0.3-0.7-0.7-1.3-0.5-0.6-1.1-1.1-0.6-0.4-1.3-0.8-0.7-0.3-1.4-0.4l-0.5-0.1h-0.5c-6.1 0-10.6 3-14.6 5.5q-0.6 0.4-1.2 0.8-0.6 0.4-1.2 0.7-0.6 0.4-1.2 0.7-0.6 0.4-1.2 0.7l-1.5 0.8-2.5 1.3-2.5 1.2c-5.3 2.6-10.7 5.2-15 10.3q-0.8 0.8-1.4 1.7-0.6 0.9-1 2-0.4 1-0.6 2.1-0.2 1-0.3 2.1 0 0.8 0.1 1.5 0.2 0.8 0.4 1.5 0.2 0.7 0.5 1.4 0.4 0.6 0.8 1.2 0.4 0.5 0.8 0.9 0.4 0.5 0.8 0.8 0.5 0.4 1 0.7 0.5 0.3 1 0.5-1 1.1-2 2.3-1 1.2-1.9 2.4-0.8 1.3-1.5 2.7-0.8 1.3-1.4 2.7-0.1 0.5-0.3 1-0.1 0.4-0.2 0.9-0.1 0.5-0.1 1-0.1 0.5-0.1 1 0 1.4 0.4 2.8 0.4 1.3 1.1 2.5 0.8 1.2 1.9 2.1 1.1 1 2.4 1.5 1.5 0.7 3.2 0.9 1.6 0.2 3.3-0.1 1.6-0.2 3.1-0.9 1.5-0.6 2.8-1.7 0.8-0.6 1.5-1.2 0.7-0.7 1.4-1.4 0.7-0.6 1.3-1.4 0.7-0.7 1.3-1.4 0 1.1 0.2 2.2 0.1 1 0.4 2.1 0.3 1.1 0.7 2.1 0.5 1 1 1.9 0.8 1.2 1.8 2.3 1.1 1 2.3 1.7 1.2 0.8 2.6 1.2 1.4 0.5 2.8 0.6 1.6 0.2 3.2 0.1 1.6-0.2 3.2-0.7 1.5-0.5 2.9-1.3 1.3-0.8 2.5-1.9 0.5-0.5 0.8-1 0.4-0.5 0.7-1 0.2-0.6 0.4-1.2 0.1-0.6 0.2-1.2 0-0.2-0.1-0.4 0-0.1 0-0.3 0-0.2-0.1-0.4 0-0.2-0.1-0.3 0.9 0.4 1.9 0.7 0.9 0.3 1.8 0.5 1 0.3 2 0.4 0.9 0.2 1.9 0.2c4.9 0.5 8.9-1.7 12.1-3.5q0.3-0.2 0.6-0.4 0.8 0.7 1.6 1.2 0.8 0.5 1.7 0.9 0.9 0.5 1.8 0.7 0.9 0.3 1.9 0.5c5 0.8 10.2-0.8 14.5-3.1q0.6 0.7 1.4 1.4 0.7 0.6 1.6 1.1 0.8 0.5 1.7 0.9 1 0.4 1.9 0.7 1.6 0.3 3.2 0.3 1.6 0 3.2-0.3 1.6-0.4 3-1.1 1.5-0.7 2.8-1.6 0.6-0.5 1.2-1.1 0.6 0.6 1.2 1.1 0.6 0.6 1.3 1 0.7 0.5 1.5 0.8 0.7 0.4 1.5 0.7 1.6 0.5 3.3 0.7 1.7 0.2 3.4 0 1.7-0.2 3.3-0.7 1.6-0.6 3-1.4 1.2-0.7 2.3-1.5 1.1-0.8 2.2-1.6 1-0.9 2-1.8 1-0.9 1.9-1.9 0.1 0.2 0.3 0.5 0.2 0.3 0.4 0.5 0.2 0.3 0.4 0.5 0.2 0.2 0.4 0.4c-5.2 2.8-10.3 6.6-13.2 11.9q-0.4 0.7-0.7 1.4-0.3 0.7-0.5 1.4-0.1 0.8-0.2 1.5-0.1 0.8-0.1 1.5 0 0.7 0 1.4 0.1 0.7 0.3 1.4 0.2 0.6 0.4 1.3 0.3 0.6 0.7 1.2 0.5 0.9 1.3 1.7 0.7 0.8 1.7 1.3 0.9 0.5 1.9 0.8 1.1 0.3 2.1 0.3c13 0.3 20.8-7.7 25.2-13.4q-0.2 0.5-0.3 1-0.1 0.6-0.1 1.1-0.1 0.6-0.1 1.1-0.1 0.6-0.1 1.1v0.6q0.1 1.5 0.7 3 0.6 1.4 1.6 2.6 1 1.2 2.3 2 1.3 0.8 2.8 1.1c8.4 1.9 14.2-3.1 17.4-5.8 4.1-3.4 7.2-7.5 10.1-11.5l3.5-4.5c1-1.2 3.4-2.8 5.9-4.3q0.2 0.4 0.4 0.7 0.1 0.3 0.4 0.6 0.2 0.3 0.4 0.6 0.2 0.3 0.4 0.6 0.6 0.6 1.2 1.2 0.6 0.6 1.3 1 0.7 0.5 1.5 0.9 0.7 0.4 1.5 0.6 2.1 0.7 4.2 0.9 2.2 0.1 4.3-0.2 2.1-0.3 4.1-1.1 2-0.8 3.8-2 1.7-1.1 3.1-2.5 1.4-1.4 2.6-3 1.2-1.7 2.1-3.5 1-1.8 1.5-3.7 0.3-0.7 0.4-1.5 0.2-0.7 0.3-1.5 0.1-0.8 0.1-1.6 0.1-0.7 0.1-1.5c0-0.7 0-1.4-0.1-2.1q0-0.9 0-1.8 0-0.7 0.1-1.4 1 0 2-0.4 1-0.3 1.9-0.9 0.9-0.6 1.6-1.4 0.7-0.8 1.1-1.7 0.2-0.4 0.4-0.8 0.1-0.4 0.2-0.8 0.1-0.5 0.1-0.9 0.1-0.4 0.1-0.8 0-0.8-0.2-1.5-0.1-0.8-0.4-1.5-0.3-0.7-0.7-1.3-0.4-0.6-0.9-1.2zm-31.4 9.7c0 0 0-0.1 0-0.1q0.1 0 0.2 0.1-0.1 0-0.2 0z"/>
		<path id="Pfad_1659" class="s1" d="m34 40.1q0.3 0.5 0.5 1.1 0.3 0.6 0.4 1.3 0 0.6 0 1.3-0.1 0.6-0.3 1.3c-2.2 8.1-8.9 16.5-4.1 24.8 2.5 4.2 10 4.2 13 1 2.4-2.4-2.2 0.6-3-3.6-1.7-8.6 6.9-17.7 2.6-27.8 11.4-7.6 24.2-13.9 31.3-26.5q0.4-0.5 0.6-1.2 0.2-0.6 0.3-1.3 0-0.7-0.1-1.3-0.1-0.7-0.3-1.3-0.4-0.8-0.9-1.4-0.6-0.6-1.3-1-0.8-0.3-1.6-0.4-0.8-0.1-1.7 0.1-0.6 0.2-1.3 0.5-0.6 0.3-1.2 0.6-0.6 0.4-1.1 0.9-0.5 0.4-1 1c-8.7 9.7-16.8 20.8-29 28.6z"/>
		<path id="Pfad_1660" class="s1" d="m33.4 39.3c-6 8.3-9.7 19.1-18.5 26.3q-0.7 0.6-1.6 1-0.9 0.4-1.8 0.5-1 0.2-1.9 0-1-0.1-1.8-0.4c-2.5-1.1-3.1-4.1-2.2-6.3 5-12.6 20.5-17 24.4-29.9 0.1-0.3-0.4-0.7-1.1-0.5-7 2.2-8.5 11.8-15.8 14q-0.7 0.2-1.4 0.2-0.6 0.1-1.3-0.1-0.7-0.2-1.3-0.6-0.5-0.3-1-0.9c-1.7-2.4-0.4-5.5 1.2-7.4 4.3-5 10.1-7.3 15.9-10.2 1.3-0.7 2.8-1.5 4.1-2.1 6-3.1 10.4-7.8 17-7.9q0.3 0.1 0.5 0.3 0.2 0.3 0.3 0.5 0.1 0.3 0.1 0.6 0 0.3-0.1 0.6c-4.2 6.5-7.9 12.1-11.8 18.7q-0.2 0.5-0.5 0.9-0.2 0.4-0.5 0.9-0.2 0.4-0.4 0.9-0.3 0.4-0.5 0.9z"/>
		<path id="Pfad_1663" class="s1" d="m63.4 35.9c0.7-0.2 1.5-0.2 2.2 0 0.8 0.1 1.5 0.5 2.1 1 0.6 0.5 1 1.1 1.3 1.8 0.3 0.8 0.4 1.5 0.3 2.3-0.6 7.1-4.3 11.4-11.1 16.4-0.7 0.5 0.1 1 0.5 1 4.8 0.1 10.8-5.1 11.3-6.5 0.8-2.2 1.5-6 2.2-7.9 0.7-1.8 1.7-3.8 2.4-5.4 5.5-10.9 17.5-27.1 27.4-22.8 2.2 0.9 2.4 2.7 1.6 5.7-3.7 13.7-15.4 24.8-23.5 30.8-5.3 4 6.9 3.4 10.2 0.8 0.9-0.6 2.8-1.5 3-2.9 2.5-12.8 16.6-37.6 33-39.6 1.7-0.2 3.3 0.6 3.5 3.2 0.7 6.7-3 10.5-6.2 15.8-5.7 9.5-13.1 15.2-20.2 22.4-1.3 1.4-1 4.8 2.8 5.2 1.6 0.2 3.2-0.7 4.4-0.8-0.1 5.9-6.1 10.8-11.9 9.4-2.7-0.6-5.2-3-5.2-5.2 0.2-3.4-0.5-1.5-0.9-1.2-5.6 4.8-16.9 9.1-21.8 1-3.7 0.9-8.4 5.5-13.6 5-3.5-0.3-6.9-1.1-8.7-3.6-0.7-0.9-3.1 1.1-4.6 0.3-2.2-1.2-1.6-2.4-0.6-3.4 1-1.2 4.1-1.2 4.3-3.4 0.8-8.9 6.8-17.2 15.8-19.4zm25.3-0.7c2.8-3.7 5.1-6.7 6.2-9.3q0-0.2-0.1-0.4-0.1-0.2-0.2-0.3-0.2-0.2-0.4-0.2-0.2-0.1-0.4-0.1c-3.6 0.1-8.8 6.8-11.5 11.9-1 1.7-2.8 6.2-2.5 7.3 0.9 0.6 6.5-5.7 8.9-8.9zm23.8-1c3.8-5.1 8.6-12.3 6.5-12.5-2.4-0.1-11.3 9.4-14.5 18.8-0.2 0.5-0.4 1.8-0.2 1.7 1.6-0.5 5.9-4.9 8.2-8zm-52.6 14.6c1.3-1.7 2.5-3.7 2.6-5.6 0-1.1 0-1.3-1.2-1.2-1.7 0.2-7.1 6.3-6.5 10 0.1 0.6 2.2-0.3 2.4-0.4q0.4-0.3 0.7-0.6 0.4-0.3 0.7-0.7 0.4-0.3 0.7-0.7 0.3-0.4 0.6-0.8z"/>
		<path id="Pfad_1664" class="s1" d="m167.3 39.6c-3 0.4-11.4 6.5-14.3 11.1q-0.3 0.4-0.4 0.8-0.2 0.4-0.3 0.8-0.1 0.5 0 0.9 0 0.5 0.2 0.9 0.2 0.4 0.5 0.7 0.3 0.3 0.7 0.5 0.4 0.1 0.9 0.1 0.4 0 0.8-0.2c6.1-2.2 7.2-9.1 10.9-13.5 0.5-1.4 6.4-6 8.3-2.8 2.3 3.9-5.3 13.3-9.2 19.7-0.3 0.5-0.4 1.2 0.4 0.9 1.9-0.7 3.9-2.9 5-3.7 2.8 1.4-4.1 11-12 13.1-2.3 0.5-8.4 17.8-25.6 17.5-3.6-0.1-4.3-4.8-2.6-7.8 4.5-8.1 16.3-12.5 22-14.2q0.3-0.3 0.7-0.6 0.3-0.3 0.6-0.6 0.3-0.4 0.6-0.7 0.2-0.4 0.5-0.8c0.2-0.9-0.2-0.5-0.5-0.4-3.9 1.7-7.5 2.5-10.5 0.4-6-4.2-0.1-13 4.9-16.7-3.1 0.3-5.5 0.2-7.6-1-0.6-0.4-1.5 1.6-1.7 3-0.8 7.7-6.5 14.1-12.8 17.8q-1 0.6-2.1 1-1.1 0.4-2.2 0.5-1.1 0.1-2.3 0-1.1-0.2-2.2-0.6-1.1-0.3-2-1-0.9-0.6-1.7-1.5-0.7-0.9-1.1-2-0.4-1-0.5-2.2c-1.1-10.6 7.7-20.2 18.4-21.9q0.6-0.2 1.2-0.1 0.6 0.1 1.2 0.4 0.5 0.4 0.9 0.9 0.4 0.4 0.6 1.1l-0.4 0.4c-5 1.6-8.7 6.5-10.3 10.2-0.8 1.7-2.3 6.8 1.7 6 6.1-1.2 9.2-9.6 8.1-13.7l0.1-1.4q0.4-0.3 0.9-0.6 0.5-0.4 0.9-0.7 0.5-0.3 1-0.6 0.4-0.3 0.9-0.6h0.1c2.2-0.2 6.6 1.7 9.7 2 7.9 0.7 11.9-4.6 18.3-3.3q0.2 0.1 0.3 0.2 0.2 0.1 0.4 0.2 0.2 0.1 0.4 0.3 0.1 0.1 0.3 0.2c0.5 0.4 0.6 1.6 0.4 1.5 0 0-0.4 0.1-0.5 0.1zm-25.4 39.2c2-1.4 8.2-7.9 6.6-7.7-1.8 0.2-8.2 3.8-10.2 6.6-0.7 0.9-0.3 1.8 0.7 2q0.4 0 0.8-0.1 0.4 0 0.7-0.1 0.4-0.2 0.7-0.3 0.4-0.2 0.7-0.4z"/>
		<path id="Pfad_1665" class="s1" d="m34 40.1q0.3 0.5 0.5 1.1 0.3 0.6 0.4 1.3 0 0.6 0 1.3-0.1 0.6-0.3 1.3c-2.2 8.1-8.9 16.5-4.1 24.8 2.5 4.2 10 4.2 13 1 2.4-2.4-2.2 0.6-3-3.6-1.7-8.6 6.9-17.7 2.6-27.8 11.4-7.6 24.2-13.9 31.3-26.5q0.4-0.5 0.6-1.2 0.2-0.6 0.3-1.3 0-0.7-0.1-1.3-0.1-0.7-0.3-1.3-0.4-0.8-0.9-1.4-0.6-0.6-1.3-1-0.8-0.3-1.6-0.4-0.8-0.1-1.7 0.1-0.6 0.2-1.3 0.5-0.6 0.3-1.2 0.6-0.6 0.4-1.1 0.9-0.5 0.4-1 1c-8.7 9.7-16.8 20.8-29 28.6z"/>
		<path id="Pfad_1666" class="s1" d="m33.4 39.3c-6 8.3-9.7 19.1-18.5 26.3q-0.7 0.6-1.6 1-0.9 0.4-1.8 0.5-1 0.2-1.9 0-1-0.1-1.8-0.4c-2.5-1.1-3.1-4.1-2.2-6.3 5-12.6 20.5-17 24.4-29.9 0.1-0.3-0.4-0.7-1.1-0.5-7 2.2-8.5 11.8-15.8 14q-0.7 0.2-1.4 0.2-0.6 0.1-1.3-0.1-0.7-0.2-1.3-0.6-0.5-0.3-1-0.9c-1.7-2.4-0.4-5.5 1.2-7.4 4.3-5 10.1-7.3 15.9-10.2 1.3-0.7 2.8-1.5 4.1-2.1 6-3.1 10.4-7.8 17-7.9q0.3 0.1 0.5 0.3 0.2 0.3 0.3 0.5 0.1 0.3 0.1 0.6 0 0.3-0.1 0.6c-4.2 6.5-7.9 12.1-11.8 18.7q-0.2 0.5-0.5 0.9-0.2 0.4-0.5 0.9-0.2 0.4-0.4 0.9-0.3 0.4-0.5 0.9z"/>
		<path id="Pfad_1667" class="s2" d="m215.3 21.7c2.9 0.2 4.3 0.4 5.7 3.8 0.6 1.5 0.3 2.3 0 3.8-0.5 2.8-7 9.3-10 7.5-0.6-0.4 0.6-1.9 1.3-3q0.2-0.2 0.2-0.5 0.1-0.3 0.1-0.6 0-0.2-0.1-0.5-0.1-0.3-0.3-0.5c-3-2.6-2.6-4.8-1.9-6.8q0.4-0.7 0.9-1.2 0.6-0.6 1.2-1 0.7-0.4 1.4-0.7 0.7-0.2 1.5-0.3z"/>
		<path id="Pfad_1668" class="s2" d="m198.8 36.3c1.8-0.1 2.4 3 0.8 3.6-5.2 2.2-14.7 4.7-15 12.7-0.1 0.6 1.2 2.1 3.1 1.3 5.7-2.5 7.1-9.1 12-12.9 2.8-2.1 5.6 1 4.6 3.7q-0.6 1.3-1.2 2.6-0.6 1.2-1.2 2.5-0.7 1.2-1.4 2.4-0.8 1.2-1.6 2.3c-1 1.5 1.1 0.6 1.6 0.3 10.7-6.4 18.2-16.3 30.1-20.7q0.8-0.3 1.7-0.4 0.8-0.1 1.7 0.1 0.9 0.2 1.6 0.6 0.8 0.5 1.4 1.1 0.3 0.3 0.5 0.7 0.2 0.4 0.3 0.8 0 0.4 0 0.9-0.1 0.4-0.3 0.8c-0.8 1.8-3.1 1.4-5 1.8q-0.3 0.1-0.5 0.2-0.3 0.2-0.5 0.4-0.2 0.3-0.4 0.5-0.1 0.3-0.2 0.6c-1.3 4.2 0.3 8.7-1.1 12.9q-0.4 1.5-1.2 2.9-0.7 1.5-1.6 2.8-1 1.3-2.1 2.4-1.2 1.1-2.5 2-1.3 0.9-2.7 1.5-1.5 0.5-3 0.7-1.5 0.3-3.1 0.1-1.5-0.1-3-0.6-0.4-0.1-0.9-0.4-0.4-0.2-0.8-0.5-0.4-0.2-0.8-0.6-0.3-0.3-0.6-0.7c-5.3-6.2 3.2-10-1.6-7.2-4 2.2-11.4 6-13.9 9.1-4.4 5.5-7.8 11.1-13 15.4-3.7 3.1-7.6 5.8-12.8 4.7q-0.7-0.2-1.3-0.6-0.6-0.3-1.1-0.8-0.4-0.6-0.7-1.2-0.3-0.7-0.3-1.4c-0.4-12.6 17-15.6 24.1-21.6-0.7-0.3-4.1 2.2-7.1 2.1-1.5-0.1-3.8-0.3-4.9-2.1q-0.7-1-1-2.2-0.4-1.2-0.4-2.4 0-1.3 0.4-2.4 0.3-1.2 1-2.3c4.6-8.4 13.7-15 23.9-15.5zm19.7 22.5c3.8-2.7 5.7-9.1 4.4-13.8-2.6 1-7.3 4.8-10.4 7.8-3.6 3.5-0.5 0.7 1.4 1.2 1.7 0.5 4.2 3 3 4.2-0.5 0.5 0.8 1.1 1.6 0.6zm-43.9 19.7c2.9-2.2 5-5.4 6.5-7.7 0.4-0.7-0.6 0.1-2.1 0.5-1.8 0.5-9.1 5.4-8.2 8.2q0.1 0.1 0.2 0.1 0.1 0.1 0.2 0.2 0.1 0 0.2 0.1 0.1 0 0.2 0.1 0.4-0.1 0.8-0.2 0.4-0.1 0.8-0.3 0.4-0.2 0.7-0.5 0.4-0.2 0.7-0.5z"/>
		<path id="Pfad_1669" class="s1" d="m63.4 35.9c0.7-0.2 1.5-0.2 2.2 0 0.8 0.1 1.5 0.5 2.1 1 0.6 0.5 1 1.1 1.3 1.8 0.3 0.8 0.4 1.5 0.3 2.3-0.6 7.1-4.3 11.4-11.1 16.4-0.7 0.5 0.1 1 0.5 1 4.8 0.1 10.8-5.1 11.3-6.5 0.8-2.2 1.5-6 2.2-7.9 0.7-1.8 1.7-3.8 2.4-5.4 5.5-10.9 17.5-27.1 27.4-22.8 2.2 0.9 2.4 2.7 1.6 5.7-3.7 13.7-15.4 24.8-23.5 30.8-5.3 4 6.9 3.4 10.2 0.8 0.9-0.6 2.8-1.5 3-2.9 2.5-12.8 16.6-37.6 33-39.6 1.7-0.2 3.3 0.6 3.5 3.2 0.7 6.7-3 10.5-6.2 15.8-5.7 9.5-13.1 15.2-20.2 22.4-1.3 1.4-1 4.8 2.8 5.2 1.6 0.2 3.2-0.7 4.4-0.8-0.1 5.9-6.1 10.8-11.9 9.4-2.7-0.6-5.2-3-5.2-5.2 0.2-3.4-0.5-1.5-0.9-1.2-5.6 4.8-16.9 9.1-21.8 1-3.7 0.9-8.4 5.5-13.6 5-3.5-0.3-6.9-1.1-8.7-3.6-0.7-0.9-3.1 1.1-4.6 0.3-2.2-1.2-1.6-2.4-0.6-3.4 1-1.2 4.1-1.2 4.3-3.4 0.8-8.9 6.8-17.2 15.8-19.4zm25.3-0.7c2.8-3.7 5.1-6.7 6.2-9.3q0-0.2-0.1-0.4-0.1-0.2-0.2-0.3-0.2-0.2-0.4-0.2-0.2-0.1-0.4-0.1c-3.6 0.1-8.8 6.8-11.5 11.9-1 1.7-2.8 6.2-2.5 7.3 0.9 0.6 6.5-5.7 8.9-8.9zm23.8-1c3.8-5.1 8.6-12.3 6.5-12.5-2.4-0.1-11.3 9.4-14.5 18.8-0.2 0.5-0.4 1.8-0.2 1.7 1.6-0.5 5.9-4.9 8.2-8zm-52.6 14.6c1.3-1.7 2.5-3.7 2.6-5.6 0-1.1 0-1.3-1.2-1.2-1.7 0.2-7.1 6.3-6.5 10 0.1 0.6 2.2-0.3 2.4-0.4q0.4-0.3 0.7-0.6 0.4-0.3 0.7-0.7 0.4-0.3 0.7-0.7 0.3-0.4 0.6-0.8z"/>
		<path id="Pfad_1670" class="s1" d="m167.3 39.6c-3 0.4-11.4 6.5-14.3 11.1q-0.3 0.4-0.4 0.8-0.2 0.4-0.3 0.8-0.1 0.5 0 0.9 0 0.5 0.2 0.9 0.2 0.4 0.5 0.7 0.3 0.3 0.7 0.5 0.4 0.1 0.9 0.1 0.4 0 0.8-0.2c6.1-2.2 7.2-9.1 10.9-13.5 0.5-1.4 6.4-6 8.3-2.8 2.3 3.9-5.3 13.3-9.2 19.7-0.3 0.5-0.4 1.2 0.4 0.9 1.9-0.7 3.9-2.9 5-3.7 2.8 1.4-4.1 11-12 13.1-2.3 0.5-8.4 17.8-25.6 17.5-3.6-0.1-4.3-4.8-2.6-7.8 4.5-8.1 16.3-12.5 22-14.2q0.3-0.3 0.7-0.6 0.3-0.3 0.6-0.6 0.3-0.4 0.6-0.7 0.2-0.4 0.5-0.8c0.2-0.9-0.2-0.5-0.5-0.4-3.9 1.7-7.5 2.5-10.5 0.4-6-4.2-0.1-13 4.9-16.7-3.1 0.3-5.5 0.2-7.6-1-0.6-0.4-1.5 1.6-1.7 3-0.8 7.7-6.5 14.1-12.8 17.8q-1 0.6-2.1 1-1.1 0.4-2.2 0.5-1.1 0.1-2.3 0-1.1-0.2-2.2-0.6-1.1-0.3-2-1-0.9-0.6-1.7-1.5-0.7-0.9-1.1-2-0.4-1-0.5-2.2c-1.1-10.6 7.7-20.2 18.4-21.9q0.6-0.2 1.2-0.1 0.6 0.1 1.2 0.4 0.5 0.4 0.9 0.9 0.4 0.4 0.6 1.1l-0.4 0.4c-5 1.6-8.7 6.5-10.3 10.2-0.8 1.7-2.3 6.8 1.7 6 6.1-1.2 9.2-9.6 8.1-13.7l0.1-1.4q0.4-0.3 0.9-0.6 0.5-0.4 0.9-0.7 0.5-0.3 1-0.6 0.4-0.3 0.9-0.6h0.1c2.2-0.2 6.6 1.7 9.7 2 7.9 0.7 11.9-4.6 18.3-3.3q0.2 0.1 0.3 0.2 0.2 0.1 0.4 0.2 0.2 0.1 0.4 0.3 0.1 0.1 0.3 0.2c0.5 0.4 0.6 1.6 0.4 1.5 0 0-0.4 0.1-0.5 0.1zm-25.4 39.2c2-1.4 8.2-7.9 6.6-7.7-1.8 0.2-8.2 3.8-10.2 6.6-0.7 0.9-0.3 1.8 0.7 2q0.4 0 0.8-0.1 0.4 0 0.7-0.1 0.4-0.2 0.7-0.3 0.4-0.2 0.7-0.4z"/>
		<path id="Pfad_1671" class="s1" d="m238.8 65.1c0-2.2-1.2-4.1-3.1-5-2-0.8-4.3-0.4-5.8 1.1-1.5 1.5-2 3.7-1.2 5.7 0.8 1.9 2.7 3.2 4.8 3.3q1.1 0 2-0.4 1-0.3 1.8-1 0.7-0.8 1.1-1.7 0.4-1 0.4-2zm-1.6 0q0.1 0.7-0.2 1.5-0.3 0.7-0.8 1.2-0.5 0.6-1.2 0.9-0.7 0.3-1.5 0.3-0.8 0-1.5-0.3-0.7-0.3-1.2-0.9-0.5-0.5-0.8-1.3-0.2-0.7-0.2-1.4c0-1.1 0.3-2.1 1-2.8 0.7-0.7 1.7-1.1 2.7-1.1 1.1 0 2 0.4 2.7 1.1 0.7 0.8 1.1 1.8 1 2.8zm-4.5 0.4h0.5l1.3 2.3h1.4l-1.4-2.4q0.3 0 0.6-0.1 0.2-0.1 0.4-0.3 0.2-0.2 0.3-0.5 0.1-0.2 0.1-0.5c0-1.3-0.9-1.7-2.3-1.7h-2.1v5.5h1.2zm0-1v-1.3h0.8c0.5 0 1.1 0.1 1.1 0.6 0 0.6-0.3 0.7-0.9 0.7z"/>
		<path id="Pfad_1661" class="s1" d="m215.3 21.7c2.9 0.2 4.3 0.4 5.7 3.8 0.6 1.5 0.3 2.3 0 3.8-0.5 2.8-7 9.3-10 7.5-0.6-0.4 0.6-1.9 1.3-3q0.2-0.2 0.2-0.5 0.1-0.3 0.1-0.6 0-0.2-0.1-0.5-0.1-0.3-0.3-0.5c-3-2.6-2.6-4.8-1.9-6.8q0.4-0.7 0.9-1.2 0.6-0.6 1.2-1 0.7-0.4 1.4-0.7 0.7-0.2 1.5-0.3z"/>
		<path id="Pfad_1662" class="s1" d="m198.8 36.3c1.8-0.1 2.4 3 0.8 3.6-5.2 2.2-14.7 4.7-15 12.7-0.1 0.6 1.2 2.1 3.1 1.3 5.7-2.5 7.1-9.1 12-12.9 2.8-2.1 5.6 1 4.6 3.7q-0.6 1.3-1.2 2.6-0.6 1.2-1.2 2.5-0.7 1.2-1.4 2.4-0.8 1.2-1.6 2.3c-1 1.5 1.1 0.6 1.6 0.3 10.7-6.4 18.2-16.3 30.1-20.7q0.8-0.3 1.7-0.4 0.8-0.1 1.7 0.1 0.9 0.2 1.6 0.6 0.8 0.5 1.4 1.1 0.3 0.3 0.5 0.7 0.2 0.4 0.3 0.8 0 0.4 0 0.9-0.1 0.4-0.3 0.8c-0.8 1.8-3.1 1.4-5 1.8q-0.3 0.1-0.5 0.2-0.3 0.2-0.5 0.4-0.2 0.3-0.4 0.5-0.1 0.3-0.2 0.6c-1.3 4.2 0.3 8.7-1.1 12.9q-0.4 1.5-1.2 2.9-0.7 1.5-1.6 2.8-1 1.3-2.1 2.4-1.2 1.1-2.5 2-1.3 0.9-2.7 1.5-1.5 0.5-3 0.7-1.5 0.3-3.1 0.1-1.5-0.1-3-0.6-0.4-0.1-0.9-0.4-0.4-0.2-0.8-0.5-0.4-0.2-0.8-0.6-0.3-0.3-0.6-0.7c-5.3-6.2 3.2-10-1.6-7.2-4 2.2-11.4 6-13.9 9.1-4.4 5.5-7.8 11.1-13 15.4-3.7 3.1-7.6 5.8-12.8 4.7q-0.7-0.2-1.3-0.6-0.6-0.3-1.1-0.8-0.4-0.6-0.7-1.2-0.3-0.7-0.3-1.4c-0.4-12.6 17-15.6 24.1-21.6-0.7-0.3-4.1 2.2-7.1 2.1-1.5-0.1-3.8-0.3-4.9-2.1q-0.7-1-1-2.2-0.4-1.2-0.4-2.4 0-1.3 0.4-2.4 0.3-1.2 1-2.3c4.6-8.4 13.7-15 23.9-15.5zm19.7 22.5c3.8-2.7 5.7-9.1 4.4-13.8-2.6 1-7.3 4.8-10.4 7.8-3.6 3.5-0.5 0.7 1.4 1.2 1.7 0.5 4.2 3 3 4.2-0.5 0.5 0.8 1.1 1.6 0.6zm-43.9 19.7c2.9-2.2 5-5.4 6.5-7.7 0.4-0.7-0.6 0.1-2.1 0.5-1.8 0.5-9.1 5.4-8.2 8.2q0.1 0.1 0.2 0.1 0.1 0.1 0.2 0.2 0.1 0 0.2 0.1 0.1 0 0.2 0.1 0.4-0.1 0.8-0.2 0.4-0.1 0.8-0.3 0.4-0.2 0.7-0.5 0.4-0.2 0.7-0.5z"/>
		<g id="K--Logo">
			<path id="Rechteck_4016" fill-rule="evenodd" class="s3" d="m0 0h242.2v92h-242.2z"/>
		</g>
	</g>
</svg>