<?xml version="1.0" encoding="utf-8"?>
<!-- Generator: Adobe Illustrator 27.3.1, SVG Export Plug-In . SVG Version: 6.00 Build 0)  -->
<svg version="1.1" id="Layer_2_00000127735809985459190390000005173848792182133920_"
	 xmlns="http://www.w3.org/2000/svg" xmlns:xlink="http://www.w3.org/1999/xlink" x="0px" y="0px" viewBox="0 0 61 58.2"
	 style="enable-background:new 0 0 61 58.2;" xml:space="preserve">
<style type="text/css">
	.st0{fill:#D31145;}
	.st1{fill:#D31145;stroke:#D31145;stroke-miterlimit:10;}
	.st2{fill:#D31145;stroke:#D31145;stroke-width:0.75;stroke-miterlimit:10;}
</style>
<g id="Layer_1-2">
	<path class="st0" d="M52.6,44.8c1.4,2,2.7,4,4,5.9c0.7,1.1,1.4,2.1,2.2,3.2c0.5,0.7,0.4,0.9-0.3,1.4c-1.2,0.8-2.4,1.7-3.6,2.5
		c-0.9,0.6-1.3,0.5-1.9-0.4c-1.9-2.8-3.7-5.5-5.6-8.3c-0.1-0.1-0.2-0.3-0.3-0.5c-0.2,0.2-0.4,0.3-0.5,0.4c-1.7,1.7-3.4,3.3-5.2,5
		c-0.1,0.1-0.3,0.3-0.4,0.4c-0.7,0.6-1.2,0.5-1.4-0.5c-0.2-1.3-0.4-2.5-0.6-3.8c-0.8-5.7-1.6-11.4-2.4-17.1
		c-0.1-0.9-0.2-1.8-0.5-2.7c-0.1,0.2-0.2,0.5-0.3,0.8c-0.5,1.9-0.9,3.7-1.4,5.6c-0.2,0.6,0.1,1,0.4,1.5c1,1.5,0.4,3.4-1.3,4
		c-1.6,0.6-3.4-0.5-3.5-2.2c0-0.5,0-0.9,0-1.5H19.8c0,0.3,0.1,0.6,0.1,0.8c0.2,1.5-0.9,2.9-2.4,3c-1.4,0.2-2.8-1-3-2.4
		c-0.2-1.5,0.9-2.8,2.4-3c0.4,0,0.7,0,1.1,0c4.6,0,9.2,0,13.9,0c0.3,0,0.5,0,0.9,0c0.5-2.2,1.1-4.3,1.6-6.7c-0.5,0-0.8,0-1.1,0
		c-5.4,0-10.8,0-16.2,0c-0.1,0-0.3,0-0.4,0c-1.1,0-1.2-0.1-1.5-1.1c-1-3.5-2-7-3-10.5c-0.3-1-0.6-2-0.9-2.9
		c-0.1-0.3-0.2-0.6-0.2-0.9c-0.1-0.6,0.1-0.8,0.7-0.9c0.5-0.1,1.1-0.1,1.6-0.1c8,0,16,0,23.9,0c0.4,0,0.8,0,1.2,0
		c0.2-0.8,0.4-1.4,0.5-2.1c0.5-1.8,1.4-2.6,3.2-2.7c0.7-0.1,1.4,0,2.1,0c0.2,0,0.5,0.1,0.7,0.1c0.3,0.1,0.6,0.3,0.5,0.7
		s-0.3,0.6-0.7,0.6c-0.6,0-1.2,0-1.8,0c-2.1,0-2.3,0.2-2.8,2.2c-1.1,4.6-2.2,9.1-3.4,13.8c0.3,0.2,0.6,0.4,0.9,0.6
		c6,3.5,12,6.9,18,10.4c1.4,0.8,2.8,1.6,4.1,2.4c0.4,0.2,0.9,0.4,0.9,0.9c0,0.6-0.6,0.8-1,1C57.6,42.7,55.2,43.8,52.6,44.8
		L52.6,44.8z M40.8,52.6c0.4-0.3,0.6-0.5,0.9-0.8c1.3-1.3,2.6-2.5,4-3.8c0.4-0.3,0.7-0.7,1.1-1c0.4-0.3,0.7-0.3,1,0.1
		c0.2,0.2,0.3,0.4,0.4,0.6c1.8,2.7,3.6,5.4,5.5,8.1c0.2,0.3,0.4,0.5,0.7,0.9c1.1-0.8,2.1-1.4,3.1-2.1c-0.2-0.4-0.4-0.7-0.6-0.9
		c-1.8-2.8-3.7-5.5-5.5-8.2c-0.6-0.8-0.5-1.1,0.4-1.5c0.3-0.2,0.7-0.3,1-0.5c1.7-0.7,3.3-1.5,5-2.2c0.3-0.1,0.6-0.3,1.1-0.5
		C52,36.7,45.5,33,39.1,29.3c-0.4-0.2-0.9-0.5-1.3-0.7h-0.1c0,0,0,0-0.2,0.1C38.6,36.6,39.7,44.5,40.8,52.6L40.8,52.6z M31.8,15.4
		c-1.1-0.2-4.8-0.2-5.6,0c0,1.1,0,2.2,0,3.3h5C31.4,17.6,31.6,16.5,31.8,15.4L31.8,15.4z M20,18.8h4.6v-3.4
		c-1.4-0.2-4.5-0.1-5.2,0.1C19.6,16.6,19.8,17.6,20,18.8z M17.9,15.4h-5.2c0.4,1.2,0.7,2.3,1,3.5h4.8C18.4,17.6,18.2,16.5,17.9,15.4
		z M37.3,18.8c0.3-1.2,0.5-2.3,0.8-3.4h-4.8c-0.2,1.2-0.4,2.3-0.6,3.4C32.7,18.8,37.4,18.8,37.3,18.8z M30.9,20.3h-4.7V24h4
		C30.5,22.8,30.7,21.6,30.9,20.3z M19.5,24c-0.2-1.3-0.5-2.5-0.7-3.7h-4.6c0.4,1.3,0.7,2.5,1.1,3.7H19.5z M36.1,24
		c0.3-1.3,0.6-2.4,0.9-3.7h-4.5c-0.2,1.2-0.5,2.4-0.7,3.7H36.1z M21,24c1.3,0,2.5,0,3.7,0v-3.7h-4.3C20.6,21.6,20.8,22.8,21,24
		L21,24z M35.7,25.6h-4.1c-0.2,1-0.4,2-0.5,3h4C35.2,27.6,35.4,26.6,35.7,25.6z M16.6,28.5c1.1,0.2,3,0.2,3.8,0
		c-0.2-1-0.4-1.9-0.5-2.9h-4.1C16,26.6,16.3,27.6,16.6,28.5z M26.3,28.6c1.1,0,2.1,0,3.2,0c0.2-1,0.3-2,0.5-3c-1.3,0-2.5-0.1-3.8,0
		L26.3,28.6L26.3,28.6z M21.3,25.6c0.2,1.1,0.4,2,0.5,3c1,0,1.9,0.1,2.9-0.1v-2.9H21.3z M18.5,39.6c0-0.7-0.6-1.3-1.2-1.2
		c-0.6,0-1.2,0.7-1.2,1.3c0,0.7,0.6,1.2,1.3,1.2C18,40.9,18.5,40.2,18.5,39.6L18.5,39.6z M33.8,39.7c0-0.6-0.5-1.2-1.1-1.3
		c-0.6,0-1.3,0.6-1.3,1.2c0,0.7,0.5,1.2,1.2,1.2C33.2,40.8,33.8,40.3,33.8,39.7L33.8,39.7z"/>
	<path class="st1" d="M25.4,0.6c6.1,0,12.1,0.1,18.1-0.1c3.1-0.1,6,2.9,6.4,5.3C50,6.4,50.1,7,50.1,7.6c0,6.9,0,13.8,0,20.7
		c0,0.3,0,0.6-0.1,0.9c-0.1,0.4-0.3,0.6-0.7,0.6s-0.6-0.2-0.7-0.6c0-0.3,0-0.5,0-0.8c0-7,0-14,0-20.9c0-2.7-1.5-4.7-3.9-5.3
		C44.1,2.1,43.5,2,42.9,2C31.7,2,20.4,2,9.2,2C8.3,2,7.4,2,6.5,2C3.9,2.2,2,4.3,2,6.9C2,19,2,31,2,43.1c0,3.2,2.2,5.3,5.3,5.3
		c5.1,0,10.1,0,15.2,0c3.9,0,7.7,0,11.6,0c0.3,0,0.7,0,1,0.1c0.4,0.1,0.6,0.3,0.6,0.7s-0.2,0.6-0.6,0.7c-0.2,0-0.5,0-0.7,0
		c-8.9,0-17.8,0-26.7,0c-2.3,0-4.3-0.8-5.7-2.6C1,46,0.8,44.5,0.7,43c0-0.3,0-0.6,0-0.9c0-10.8,0-21.5,0-32.3c0-1.1,0.1-2.2,0.1-3.4
		C0.9,3.5,4.1,0.5,7,0.6C13,0.6,19.2,0.5,25.4,0.6z"/>
	<path class="st2" d="M40.1,53.4c-1.2-8.8-2.4-17.3-3.6-25.8c0.1-0.1,0.2-0.1,0.2-0.1h0.1c0.5,0.2,1,0.5,1.4,0.7
		c7,4,14.1,8.1,21.3,12.2c-0.5,0.2-0.8,0.4-1.2,0.6c-1.8,0.8-3.6,1.6-5.4,2.4c-0.4,0.2-0.7,0.3-1.1,0.5c-1,0.5-1.1,0.7-0.5,1.7
		c2,3,4,6,6,8.9c0.2,0.3,0.4,0.6,0.7,1c-1.1,0.8-2.2,1.5-3.4,2.3c-0.2-0.3-0.5-0.6-0.7-0.9c-2-2.9-3.9-5.8-5.9-8.7
		c-0.1-0.2-0.3-0.4-0.4-0.6c-0.3-0.4-0.7-0.4-1.1-0.1c-0.4,0.4-0.8,0.7-1.2,1.1c-1.4,1.4-2.9,2.7-4.3,4.1
		C40.8,52.8,40.6,53,40.1,53.4L40.1,53.4z"/>
</g>
</svg>
