<?xml version="1.0" encoding="utf-8"?>
<!-- Generator: Adobe Illustrator 27.3.1, SVG Export Plug-In . SVG Version: 6.00 Build 0)  -->
<svg version="1.1" id="Layer_2_00000170243434477260246800000017550288655172501897_"
	 xmlns="http://www.w3.org/2000/svg" xmlns:xlink="http://www.w3.org/1999/xlink" x="0px" y="0px" viewBox="0 0 53.2 49.2"
	 style="enable-background:new 0 0 53.2 49.2;" xml:space="preserve">
<style type="text/css">
	.st0{fill:#D31145;}
	.st1{fill:#D31145;stroke:#D31145;stroke-width:0.25;stroke-miterlimit:10;}
</style>
<g id="Layer_1-2">
	<path class="st0" d="M2.7,27.4c0.2,3,0.8,5.9,2.2,8.5c2.2,4,5.3,7,9.6,8.9c4.3,1.9,8.6,2.2,13,1c7.8-2.3,12.6-7.5,14.2-15.5
		c0.6-3.1,0.4-6.2-0.6-9.2c-0.1-0.4-0.3-0.9-0.3-1.3c-0.1-0.7,0.3-1.3,1-1.5c0.5-0.2,1.3,0.1,1.6,0.8c0.3,0.7,0.5,1.4,0.7,2.1
		c2.1,8.3,0.1,15.5-5.8,21.6c-3.3,3.4-7.4,5.5-12.2,6.3c-6.4,1-12.1-0.4-17.3-4.3C3.9,40.9,1,35.9,0.2,29.8C-0.9,21,2.3,14,9.5,8.7
		c4.2-3.1,9-4.4,14.2-4.2c4,0.2,7.7,1.3,11,3.5c0.3,0.2,0.6,0.4,0.9,0.7c0.5,0.6,0.6,1.2,0.1,1.8c-0.4,0.5-0.9,0.6-1.6,0.3
		c-0.4-0.2-0.8-0.5-1.2-0.7C27,6.9,21,6.2,14.9,8.8C8.4,11.6,4.4,16.5,3,23.5C2.8,24.8,2.8,26.1,2.7,27.4L2.7,27.4z"/>
	<path class="st1" d="M24.6,26.7c0.5-0.5,1-1,1.5-1.5c8.1-8,16.2-16.1,24.2-24.1c0.2-0.2,0.4-0.4,0.6-0.6C51.5,0,52,0,52.5,0.4
		c0.6,0.5,0.7,1.2,0.3,1.9c-0.2,0.2-0.4,0.5-0.6,0.7c-8,8-16.1,16-24.1,24c-0.7,0.7-1.5,1.5-2.2,2.2c-0.2,0.2-0.4,0.4-0.7,0.6
		c-0.7,0.5-1,0.5-1.7,0c-0.2-0.2-0.5-0.4-0.7-0.6c-2.4-2.4-4.8-4.7-7.1-7.1c-0.2-0.2-0.5-0.5-0.6-0.8c-0.4-0.6-0.3-1.2,0.1-1.7
		c0.4-0.4,1.1-0.5,1.6-0.2c0.3,0.2,0.5,0.4,0.8,0.6c2,2,4,4,6,6C24,26.2,24.3,26.4,24.6,26.7L24.6,26.7z"/>
</g>
</svg>
