<?xml version="1.0" encoding="utf-8"?>
<!-- Generator: Adobe Illustrator 27.3.1, SVG Export Plug-In . SVG Version: 6.00 Build 0)  -->
<svg version="1.1" id="Layer_2_00000021093060049640096980000013294921099079610799_"
	 xmlns="http://www.w3.org/2000/svg" xmlns:xlink="http://www.w3.org/1999/xlink" x="0px" y="0px" viewBox="0 0 50 55.3"
	 style="enable-background:new 0 0 50 55.3;" xml:space="preserve">
<style type="text/css">
	.st0{fill:#D31145;}
</style>
<g id="Layer_1-2">
	<path class="st0" d="M42,34.1c0,0.3,0,0.6,0,0.9c0,5.1,0,10.1,0,15.2c0,0.4,0,0.9-0.1,1.3c-0.3,2.1-1.9,3.6-4.1,3.8
		c-0.4,0-0.7,0-1.1,0c-10.6,0-21.3,0-31.9,0c-1.1,0-2.1-0.2-3-0.8c-1.1-0.7-1.8-1.7-1.8-3c0-0.4,0-0.9,0-1.3C0,35,0,19.8,0,4.6
		C0,1.7,1.6,0,4.6,0c7.7,0,15.3,0,22.9,0c2.1,0,1.7-0.2,3.4,1.4c3.1,3,6.3,5.9,9.4,8.9c2.2,2.2,1.8,1.4,1.8,4.2c0,1.2,0,2.4,0,3.6
		c0,0.7-0.2,1.3-0.7,1.8c-0.6,0.7-1.1,1.4-1.8,2c-0.1-1.3-0.1-2.7-0.1-4c0-1.3,0-2.6,0-4c-0.4,0-0.7-0.1-1-0.1c-2,0-4.1,0-6.1,0
		c-1.5,0-2.8-0.4-3.9-1.5c-0.6-0.6-1-1.3-1-2.2c-0.1-1.9-0.1-3.7-0.1-5.6c0-0.8,0-1.6,0-2.5c-0.5,0-0.8,0-1.1,0C19.2,2,12.1,2,5.1,2
		C4.7,2,4.3,2,4,2.1C3.1,2.3,2.6,2.9,2.4,3.9c0,0.3,0,0.6,0,0.9c0,15.1,0,30.2,0,45.4c0,0.4,0,0.7,0,1.1c0.1,1.1,0.8,1.9,2,2
		c0.3,0,0.5,0,0.8,0c10.5,0,21.1,0,31.6,0c0.4,0,0.9,0,1.3-0.2c0.9-0.2,1.4-0.9,1.4-1.8c0-0.5,0-0.9,0-1.4c0-3.9,0-7.9,0-11.8
		c0-0.9,0.2-1.5,0.8-2.2c0.5-0.6,1-1.2,1.6-1.9C41.9,34,42,34.1,42,34.1L42,34.1z M38,11.7l0.1-0.2c-2.7-2.6-5.3-5.1-8-7.7
		C30,4,29.9,4.1,29.9,4.1c0,1.8,0,3.7,0,5.6c0,1.2,0.7,1.9,1.9,2C33.9,11.8,35.9,11.7,38,11.7L38,11.7z"/>
	<path class="st0" d="M47.7,24.1c-3.5,4.4-7,8.8-10.7,13.3c-1.6-1.3-3.1-2.5-4.7-3.8c3.6-4.5,7.1-8.9,10.6-13.3
		C43.6,20.6,46.8,23.1,47.7,24.1z M46,23.8c-0.6-0.7-0.7-0.7-1.2-0.2c-0.1,0.1-0.3,0.3-0.4,0.5c-2.7,3.4-5.4,6.7-8.1,10.1
		c-0.1,0.2-0.2,0.3-0.3,0.5c-0.2,0.3-0.2,0.7,0.2,0.8c0.2,0.1,0.5,0,0.7-0.2c0.2-0.1,0.3-0.3,0.4-0.4c2.8-3.5,5.5-6.9,8.3-10.4
		C45.7,24.3,45.8,24.1,46,23.8L46,23.8z M43.7,21.7c-0.4,0.4-0.7,0.7-1,1c-0.4,0.5-0.8,0.9-1.1,1.4c-2.3,2.9-4.6,5.7-6.9,8.6
		c-0.2,0.3-0.4,0.5-0.5,0.8c-0.2,0.3,0,0.6,0.4,0.6c0.5,0.1,0.7-0.2,0.9-0.5c2.1-2.6,4.2-5.3,6.4-7.9c0.8-1.1,1.7-2.1,2.6-3.2
		C44.1,22.3,44,22.1,43.7,21.7L43.7,21.7z"/>
	<path class="st0" d="M20.7,20.6c-4,0-8,0-11.9,0c-0.5,0-0.9,0-1.4-0.1c-0.4-0.1-0.8-0.3-0.8-0.9c0-0.5,0.3-0.8,0.8-1
		c0.4-0.1,0.8-0.1,1.2-0.1c8.1,0,16.3,0,24.4,0c0.4,0,0.9,0,1.3,0.1c0.5,0.1,0.9,0.5,0.8,1c0,0.5-0.4,0.8-0.8,0.9
		c-0.4,0.1-0.8,0.1-1.3,0.1C28.9,20.6,24.8,20.6,20.7,20.6L20.7,20.6L20.7,20.6z"/>
	<path class="st0" d="M20.5,25c4,0,7.9,0,11.9,0c0.4,0,0.9,0,1.3,0.1c0.5,0.1,0.8,0.6,0.8,1c0,0.4-0.4,0.8-0.9,0.9
		c-0.4,0.1-0.8,0.1-1.2,0.1c-7.9,0-15.8,0-23.7,0c-0.4,0-0.8,0-1.2-0.1c-0.6-0.1-0.9-0.5-0.9-1c0-0.5,0.4-0.9,0.9-1
		C7.9,25,8.3,25,8.7,25C12.6,25,16.6,25,20.5,25L20.5,25L20.5,25z"/>
	<path class="st0" d="M20.4,44.5c4,0,7.9,0,11.9,0c0.4,0,0.9,0,1.3,0.1c0.5,0.1,0.9,0.5,0.9,0.9c0,0.4-0.4,0.8-0.9,0.9
		c-0.3,0.1-0.7,0.1-1,0.1c-8.1,0-16.2,0-24.3,0c-0.4,0-0.9-0.1-1.2-0.3c-0.2-0.1-0.5-0.5-0.5-0.8c0.1-0.3,0.3-0.7,0.6-0.8
		c0.4-0.2,0.8-0.2,1.3-0.2C12.4,44.5,16.4,44.5,20.4,44.5L20.4,44.5z"/>
	<path class="st0" d="M18.5,33.6c-3.3,0-6.6,0-10,0c-0.3,0-0.7,0-1,0c-0.6-0.1-1-0.5-1-1c0-0.5,0.3-0.9,0.9-1
		c0.2-0.1,0.5-0.1,0.8-0.1c6.9,0,13.8,0,20.6,0c0.4,0,0.7,0,1.1,0.2c0.5,0.1,0.6,0.6,0.6,1c0,0.5-0.3,0.8-0.8,0.9
		c-0.3,0.1-0.6,0-0.9,0C25.4,33.6,22,33.6,18.5,33.6L18.5,33.6z"/>
	<path class="st0" d="M17.1,40.1c-2.9,0-5.8,0-8.8,0c-0.3,0-0.7,0-1-0.1c-0.7-0.1-0.9-0.5-0.9-1.1c0-0.6,0.3-0.8,1-0.9
		c0.3,0,0.7,0,1,0c5.8,0,11.7,0,17.5,0c0.3,0,0.5,0,0.8,0c0.5,0.1,0.8,0.4,0.9,0.9c0,0.6-0.2,1-0.8,1.1c-0.3,0.1-0.7,0.1-1,0.1
		C23,40.1,20.1,40.1,17.1,40.1L17.1,40.1L17.1,40.1z"/>
	<path class="st0" d="M15.8,6.6c2.5,0,5,0,7.5,0c0.2,0,0.5,0,0.7,0c0.7,0.1,0.9,0.3,1,1c0,0.7-0.2,1-0.9,1.1c-0.3,0.1-0.6,0-0.9,0
		c-4.9,0-9.8,0-14.7,0c-0.4,0-0.7,0-1.1-0.1C6.7,8.5,6.5,8.1,6.5,7.5c0.1-0.6,0.3-0.8,1-0.9c0.3,0,0.6,0,0.9,0
		C10.9,6.6,13.3,6.6,15.8,6.6L15.8,6.6L15.8,6.6z"/>
	<path class="st0" d="M15.7,14.1c-2.7,0-5.3,0-8,0c-0.8,0-1.1-0.2-1.2-0.9c-0.1-0.6,0.2-1,0.8-1.2C7.6,12,7.9,12,8.2,12
		c5,0,10,0,14.9,0c0.3,0,0.5,0,0.8,0.1c0.7,0.1,1,0.4,1,1.1c0,0.7-0.3,1-1.1,1C21.1,14.2,18.4,14.1,15.7,14.1L15.7,14.1z"/>
	<path class="st0" d="M31.4,34.8c1.6,1.3,3.1,2.5,4.6,3.7c-0.7,1.5-1.9,2.2-3.5,2.6c-0.8-0.6-1.7-1.3-2.6-2.1
		c-0.1-0.1-0.3-0.4-0.2-0.6c0.1-1,0.1-2,0.9-2.7C31,35.4,31.2,35.1,31.4,34.8L31.4,34.8z"/>
	<path class="st0" d="M48.6,23c-1.6-1.2-3.1-2.5-4.7-3.7c0.8-1.2,1.7-2.2,3.3-2.1c1.2,0.1,2.1,0.7,2.6,1.9
		C50.4,20.5,49.7,21.8,48.6,23z"/>
	<path class="st0" d="M29.6,39.7c0.8,0.6,1.4,1.1,2.1,1.7c-0.9,0.4-1.6,0.7-2.5,1C29.4,41.5,29.4,40.8,29.6,39.7z"/>
</g>
</svg>
