<?xml version="1.0" encoding="utf-8"?>
<!-- Generator: Adobe Illustrator 27.3.1, SVG Export Plug-In . SVG Version: 6.00 Build 0)  -->
<svg version="1.1" id="Layer_2_00000182527662360507771580000015332787334272373679_"
	 xmlns="http://www.w3.org/2000/svg" xmlns:xlink="http://www.w3.org/1999/xlink" x="0px" y="0px" viewBox="0 0 58.5 58.3"
	 style="enable-background:new 0 0 58.5 58.3;" xml:space="preserve">
<style type="text/css">
	.st0{fill:#D31145;stroke:#D31145;stroke-width:0.25;stroke-miterlimit:10;}
	.st1{fill:#D31145;}
</style>
<g id="Layer_1-2">
	<path class="st0" d="M14.4,47.8c-0.8,0.5-1.4,0.8-1.2,1.8c0.1,0.6-0.2,1.1-0.6,1.5c-2.2,2.1-4.3,4.2-6.5,6.3c-0.9,0.9-2,0.9-2.9,0
		c-0.9-0.8-1.7-1.7-2.5-2.7c-0.7-0.5-0.7-1.3-0.2-2c0.2-0.3,0.4-0.6,0.7-0.8c2-1.9,4-3.8,5.9-5.7c0.6-0.6,1.3-1,2.1-0.8
		c0.4,0.1,0.6,0,0.9-0.3c0.7-0.7,1.4-1.4,2.1-2.2c-0.1-0.2-0.2-0.5-0.4-0.8c-2.5-5-1.8-10.4,1.9-14.6c0.4-0.4,0.6-0.9,0.6-1.4
		c0-5.8,0-11.6,0-17.4c0-0.5,0-1.1,0-1.6c0.1-1.3,0.8-1.9,2-2c0.9,0,1.9,0,2.9,0c0-0.3,0.1-0.6,0.1-0.8c0-0.8,0-1.5,0-2.3
		C19.5,1,20,0.5,21,0.3c0.5-0.1,1-0.2,1.6-0.2c10.9,0,21.9,0,32.8,0c0.5,0,1.1,0.1,1.6,0.2c1,0.2,1.4,0.8,1.4,1.8c0,0.7,0,1.5,0,2.2
		c0,14.5,0,28.9,0,43.4c0,0.2,0,0.3,0,0.5c0,1.1-0.7,1.8-1.8,1.8c-1.3,0-2.6,0-3.9,0c-0.6,0-1,0.2-1.4,0.6c-1,1.1-2.1,2.1-3.2,3.2
		c-0.8,0.8-1.6,1.2-2.7,1.2c-9.5,0-19,0-28.5,0c-0.1,0-0.1,0-0.2,0c-1.6,0-2.2-0.7-2.3-2.2c0-1.4,0-2.7,0-4.1
		C14.4,48.4,14.4,48.2,14.4,47.8L14.4,47.8z M30.5,25.1c0.4,0.3,0.6,0.5,0.8,0.7c0.9,0.9,1.9,1.8,2.7,2.7c0.5,0.5,0.9,0.7,1.6,0.7
		c3,0,6,0,9.1,0c0.4,0,0.8,0,1.2,0.1s0.6,0.4,0.7,0.8c0,0.5-0.2,0.8-0.7,0.9c-0.3,0.1-0.7,0.1-1,0.1c-2.7,0-5.5,0-8.2,0
		c-0.3,0-0.6,0-1,0c0.3,1.4,0.7,2.7,1,4.1c0.3,0,0.7,0,1,0c2.3,0,4.7,0,7,0c0.4,0,0.8,0,1.2,0.1s0.7,0.4,0.7,0.9
		c0,0.4-0.4,0.8-0.8,0.8c-0.2,0-0.5,0-0.7,0c-2.4,0-4.8,0-7.3,0c-0.3,0-0.7,0-1,0c-0.4,1.5-0.7,2.8-1,4.2c0.4,0,0.8,0,1.2,0
		c2.7,0,5.3,0,8,0c0.3,0,0.7,0,1,0.1c0.4,0.1,0.6,0.4,0.5,0.8c0,0.4-0.2,0.8-0.7,0.8c-0.3,0-0.5,0-0.8,0c-3.1,0-6.2,0-9.4,0
		c-0.6,0-1,0.1-1.4,0.7c-0.7,1-1.6,1.9-2.6,2.7c-0.1,0.1-0.2,0.2-0.4,0.5c0.5,0,0.9,0,1.3,0c1.9,0,3.8,0,5.7,0c0.4,0,0.7,0,1.1,0.1
		c0.4,0.1,0.6,0.4,0.7,0.8c0,0.4-0.2,0.7-0.6,0.8c-0.4,0.1-0.8,0.2-1.3,0.2c-3.1,0-6.2,0-9.3,0c-0.9,0-1.8,0-2.7,0.2
		c-3.1,0.5-6,0.1-8.7-1.4c-0.2-0.1-0.5-0.2-0.9-0.5c0.1,2.1,0,4.1,0.1,6.1H46c0-1.3,0-2.5,0-3.7c0-1.8,0.5-2.3,2.3-2.3
		c1,0,1.9,0,2.9,0c0.2,0,0.5,0,0.7-0.1c0-3-0.1-39.2-0.4-40H16.4c-0.2,1.3-0.2,17.5,0.1,18.3c0.2-0.1,0.4-0.2,0.6-0.3
		c1.9-1,3.8-1.7,6-1.7c1.1,0,2.1,0,3.2,0c6.2,0,12.4,0,18.6,0c0.3,0,0.5,0,0.8,0c0.5,0.1,0.9,0.5,0.9,0.9s-0.3,0.8-0.8,0.9
		c-0.4,0.1-0.7,0-1.1,0c-4.3,0-8.6,0-13,0C31.4,25.2,31,25.2,30.5,25.1L30.5,25.1z M21.3,5.1c0.4,0,0.6,0,0.8,0c9.6,0,19.3,0,28.9,0
		c0.3,0,0.5,0,0.8,0c1,0.2,1.7,0.9,1.8,2c0,0.3,0,0.6,0,0.9c0,12.9,0,25.9,0,38.8c0,0.4,0,0.8,0,1.2h2.9c0.3-1.7,0.2-45.1-0.1-46
		H21.3c0,0.3,0,0.6,0,0.8C21.3,3.6,21.3,4.3,21.3,5.1L21.3,5.1z M12.3,36.1c0,6.2,5,11.1,11.3,11.1c6.1,0,11.1-4.9,11.1-11
		c0.1-6.2-5.1-11.1-11-11.2C17.3,24.9,12.2,30.1,12.3,36.1L12.3,36.1z M8.8,47c-2.3,2.3-4.6,4.4-6.9,6.6c1,0.9,1.9,1.8,2.8,2.6
		c2.2-2.1,4.4-4.2,6.8-6.5C10.7,48.8,9.8,48,8.8,47z M47.6,48.9v2.8c1-1,1.9-1.8,2.7-2.8H47.6z M14.2,45.1c-0.1-0.2-0.4-0.5-0.6-0.8
		c-0.9,0.8-1.7,1.6-2.5,2.3c0.3,0.3,0.6,0.6,0.9,0.9C12.7,46.8,13.4,46,14.2,45.1z"/>
	<path class="st1" d="M34.1,11.4c3.6,0,7.2,0,10.8,0c0.3,0,0.6,0,0.9,0c0.4,0.1,0.7,0.3,0.7,0.7S46.4,12.9,46,13
		c-0.4,0.1-0.8,0.2-1.2,0.2c-1.2,0-2.5,0-3.7,0c-5.9,0-11.8,0-17.6,0c-0.4,0-0.8,0-1.2-0.1c-0.5-0.1-0.8-0.6-0.8-1s0.3-0.7,0.9-0.7
		c0.3,0,0.6,0,0.9,0C26.9,11.4,30.5,11.4,34.1,11.4L34.1,11.4z"/>
	<path class="st1" d="M34.1,17.4c3.6,0,7.1,0,10.7,0c0.3,0,0.7,0,1,0c0.5,0,0.8,0.4,0.9,0.8c0.1,0.5-0.2,0.8-0.6,0.9
		c-0.4,0.1-0.8,0.1-1.3,0.1c-6.7,0-13.3,0-19.9,0c-0.6,0-1.2,0-1.8,0c-0.3,0-0.7-0.1-0.9-0.3c-0.2-0.1-0.4-0.5-0.3-0.8
		s0.3-0.6,0.6-0.7c0.2-0.1,0.6-0.1,0.9-0.1C26.8,17.3,30.5,17.3,34.1,17.4L34.1,17.4z"/>
</g>
<path class="st1" d="M22.2,39.2l6.8-6.8c0.2-0.2,0.6-0.2,0.9,0l0.3,0.3c0.2,0.2,0.2,0.6,0,0.9l-8,8c-0.2,0.2-0.6,0.2-0.9,0l-4.4-4.4
	c-0.2-0.2-0.2-0.6,0-0.9l0.3-0.3c0.2-0.2,0.6-0.2,0.9,0l3.2,3.2C21.5,39.5,21.9,39.5,22.2,39.2z"/>
</svg>
