<svg id="icn--youtube" xmlns="http://www.w3.org/2000/svg" xmlns:xlink="http://www.w3.org/1999/xlink" width="42" height="42" viewBox="0 0 42 42">
  <defs>
    <clipPath id="clip-path">
      <rect id="Rechteck_4080" data-name="Rechteck 4080" width="42" height="42" fill="#f60b45"/>
    </clipPath>
  </defs>
  <g id="Gruppe_2612" data-name="Gruppe 2612" clip-path="url(#clip-path)">
    <path id="Pfad_1773" data-name="Pfad 1773" d="M21.743,16.882l-8.536-4.326a.343.343,0,0,0-.5.306v8.4a.343.343,0,0,0,.49.31L21.735,17.5a.342.342,0,0,0,.008-.615" transform="translate(3.841 3.783)" fill="#f60b45"/>
    <path id="Pfad_1774" data-name="Pfad 1774" d="M20.836,0A20.836,20.836,0,1,0,41.671,20.836,20.835,20.835,0,0,0,20.836,0M29.96,31.88H11.711A6.483,6.483,0,0,1,5.227,25.4V16.274A6.483,6.483,0,0,1,11.711,9.79H29.96a6.483,6.483,0,0,1,6.484,6.484V25.4A6.483,6.483,0,0,1,29.96,31.88" fill="#f60b45"/>
  </g>
</svg>
