<svg id="icn--instagram" xmlns="http://www.w3.org/2000/svg" xmlns:xlink="http://www.w3.org/1999/xlink" width="42" height="42" viewBox="0 0 42 42">
  <defs>
    <clipPath id="clip-path">
      <rect id="Rechteck_4079" data-name="Rechteck 4079" width="42" height="42" fill="#f60b45"/>
    </clipPath>
  </defs>
  <g id="Gruppe_2610" data-name="Gruppe 2610" clip-path="url(#clip-path)">
    <path id="Pfad_1770" data-name="Pfad 1770" d="M30.2,10.152a4.852,4.852,0,0,0-2.778-2.778,8.094,8.094,0,0,0-2.718-.5c-1.543-.07-2.007-.083-5.915-.083-.488,0-.923,0-1.313,0v0c-2.728,0-3.252.021-4.6.082a8.051,8.051,0,0,0-2.718.505,4.859,4.859,0,0,0-2.779,2.778,8.162,8.162,0,0,0-.5,2.718c-.069,1.543-.083,2-.083,5.913s.014,4.372.083,5.915a8.11,8.11,0,0,0,.5,2.716,4.859,4.859,0,0,0,2.779,2.778,8.1,8.1,0,0,0,2.718.5c1.543.07,2.007.086,5.915.086s4.372-.016,5.915-.086a8.06,8.06,0,0,0,2.718-.5A4.855,4.855,0,0,0,30.2,27.412a8.077,8.077,0,0,0,.5-2.716c.07-1.543.085-2.007.085-5.913s-.014-4.369-.085-5.912a8.094,8.094,0,0,0-.5-2.718M18.786,26.3A7.516,7.516,0,1,1,26.3,18.786,7.515,7.515,0,0,1,18.786,26.3M26.6,12.729a1.756,1.756,0,1,1,0-3.512h0a1.757,1.757,0,1,1,0,3.513" transform="translate(2.051 2.05)" fill="#f60b45"/>
    <path id="Pfad_1771" data-name="Pfad 1771" d="M17.133,12.253a4.879,4.879,0,1,0,4.879,4.879,4.879,4.879,0,0,0-4.879-4.879" transform="translate(3.703 3.703)" fill="#f60b45"/>
    <path id="Pfad_1772" data-name="Pfad 1772" d="M20.836,0A20.836,20.836,0,1,0,41.671,20.836,20.837,20.837,0,0,0,20.836,0M35.384,26.87a10.855,10.855,0,0,1-.68,3.552,7.494,7.494,0,0,1-4.28,4.282,10.73,10.73,0,0,1-3.555.68c-1.56.072-2.059.089-6.033.089s-4.474-.017-6.035-.089a10.722,10.722,0,0,1-3.554-.68,7.494,7.494,0,0,1-4.28-4.282,10.787,10.787,0,0,1-.68-3.552c-.07-1.561-.089-2.059-.089-6.035s.018-4.474.089-6.035a10.689,10.689,0,0,1,.68-3.554,7.487,7.487,0,0,1,4.282-4.279A10.751,10.751,0,0,1,14.8,6.287c1.56-.07,2.06-.089,6.032-.089s4.472.018,6.033.089a10.774,10.774,0,0,1,3.555.681,7.484,7.484,0,0,1,4.282,4.28,10.841,10.841,0,0,1,.68,3.552c.07,1.561.089,2.06.089,6.035s-.018,4.473-.089,6.035" fill="#f60b45"/>
  </g>
</svg>
