<svg id="icn--facebook" xmlns="http://www.w3.org/2000/svg" xmlns:xlink="http://www.w3.org/1999/xlink" width="42" height="42" viewBox="0 0 42 42">
  <defs>
    <clipPath id="clip-path">
      <rect id="Rechteck_4077" data-name="Rechteck 4077" width="42" height="42" fill="#f60b45"/>
    </clipPath>
  </defs>
  <g id="Gruppe_2607" data-name="Gruppe 2607" clip-path="url(#clip-path)">
    <path id="Pfad_1763" data-name="Pfad 1763" d="M15.923,32h0" transform="translate(4.812 9.671)" fill="#f60b45" fill-rule="evenodd"/>
    <path id="Pfad_1764" data-name="Pfad 1764" d="M20.836,0a20.836,20.836,0,0,0-.787,41.657,20.944,20.944,0,0,1-3.308-.389V25.4h-3.4V19.739h3.4v-3.4c0-4.62,1.919-7.368,7.371-7.368h4.537v5.665H25.813c-2.121,0-2.262.792-2.262,2.268l-.008,2.835h5.139l-.6,5.665H23.543V41.5q-.838.107-1.682.15A20.836,20.836,0,0,0,20.836,0" fill="#f60b45" fill-rule="evenodd"/>
    <path id="Pfad_1765" data-name="Pfad 1765" d="M16.543,31.992,16.305,32l.238-.005" transform="translate(4.928 9.669)" fill="#f60b45" fill-rule="evenodd"/>
    <path id="Pfad_1766" data-name="Pfad 1766" d="M16.831,31.982l-.281.012.281-.012" transform="translate(5.002 9.666)" fill="#f60b45" fill-rule="evenodd"/>
    <path id="Pfad_1767" data-name="Pfad 1767" d="M15.416,31.989,15.65,32l-.234-.008" transform="translate(4.659 9.668)" fill="#f60b45" fill-rule="evenodd"/>
    <path id="Pfad_1768" data-name="Pfad 1768" d="M15.656,32l.184,0-.184,0" transform="translate(4.732 9.67)" fill="#f60b45" fill-rule="evenodd"/>
  </g>
</svg>
