<?xml version="1.0" encoding="utf-8"?>
<!-- Generator: Adobe Illustrator 27.3.1, SVG Export Plug-In . SVG Version: 6.00 Build 0)  -->
<svg version="1.1" id="Layer_2_00000016060790751589225080000000688552505620834740_"
	 xmlns="http://www.w3.org/2000/svg" xmlns:xlink="http://www.w3.org/1999/xlink" x="0px" y="0px" viewBox="0 0 97.8 55.4"
	 style="enable-background:new 0 0 97.8 55.4;" xml:space="preserve">
<style type="text/css">
	.st0{fill:#D31145;stroke:#D31145;stroke-miterlimit:10;}
	.st1{fill:#D31145;}
</style>
<path class="st0" d="M48.9,25.9c-11.4,0-22.9,0-34.3,0c-1.2,0-2.3-0.1-3.5-0.2C5.2,24.8,0.6,19.5,0.5,13.6c-0.1-5.2,2.3-9,6.7-11.6
	c1.4-0.8,3-1.3,4.6-1.4c1.5-0.1,2.9-0.2,4.4-0.2c22.3,0,44.6,0,66.9,0c2.3,0,4.5,0.2,6.6,1.1c4.3,2.1,6.9,5.4,7.4,10.2
	c0.1,1.4,0.2,2.8-0.1,4.1c-0.8,3.5-2.8,6.1-5.8,8c-2.3,1.5-4.9,2-7.6,2C72.1,25.9,60.5,25.9,48.9,25.9L48.9,25.9z M32.2,24.1
	c0.4,0,0.7,0,1,0c5.2,0,10.4,0,15.5,0c11.7,0,23.3,0,35,0c2.2,0,4.3-0.4,6.2-1.5c5.2-2.9,7.6-9.9,3.5-15.8c-2.2-3.2-5.4-4.5-9.3-4.5
	c-17.1,0-34.1,0-51.2,0c-0.3,0-0.6,0-0.9,0.1L32.2,24.1L32.2,24.1z M30.4,2.5c-0.4,0-0.7,0-1,0c-5.2,0-10.4,0-15.7,0
	c-0.8,0-1.7,0-2.5,0.2c-6,1.1-9.6,6.7-8.9,11.7c0.5,3.8,2.3,6.5,5.5,8.5c1.8,1.1,3.8,1.4,5.9,1.4c5.2,0,10.5,0,15.8,0
	c0.3,0,0.6,0,0.9-0.1L30.4,2.5L30.4,2.5z"/>
<path class="st0" d="M48.8,54.9c-11.9,0-23.8-0.1-35.7,0c-5,0-9.9-3.3-11.7-8.1c-3-8,2.1-15.7,9.7-17c1-0.2,2-0.2,3-0.2
	c21,0,42,0,63,0c2.5,0,4.9,0,7.4,0c3,0,5.7,0.9,8.1,2.7c2.1,1.7,3.7,3.8,4.3,6.4c1.3,5.9-0.3,11.3-6.1,14.6c-1.8,1-3.8,1.5-5.9,1.5
	C72.8,54.9,60.8,54.9,48.8,54.9L48.8,54.9z M32.2,53.2c0.5,0,1,0,1.4,0c17,0,33.9,0,50.8,0c4.2,0,7.4-1.7,9.6-5.2
	c3.4-5.5,1-13-4.9-15.6c-1.8-0.8-3.6-1-5.6-1c-9,0-17.9,0-26.9,0c-7.5,0-15.1,0-22.6,0c-0.6,0-1.2,0-1.8,0L32.2,53.2L32.2,53.2z
	 M30.3,31.5c-0.3,0-0.7-0.1-1-0.1c-5.3,0-10.6,0-15.9,0c-1,0-2.1,0.1-3.1,0.3c-5.8,1.5-9.2,7-8,12.9c0.9,4.6,5.3,8.6,10.6,8.5
	c5.4-0.1,10.8,0,16.2,0c0.3,0,0.6,0,1,0C30.3,53.1,30.3,31.5,30.3,31.5z"/>
<path class="st1" d="M17.6,21.5c-2,0-4,0-6,0c-0.3,0-0.6,0-0.9,0c-0.8-0.1-1.1-0.3-1.1-1.1c-0.1-1.2,0.1-2.4,0.6-3.5
	c0.8-1.6,2-2.8,3.6-3.5c2.8-1.1,5.6-1,8.3,0.4c2.5,1.4,3.6,3.7,3.5,6.5c0,0.6-0.3,1-1,1.1c-0.4,0.1-0.8,0-1.2,0
	C21.6,21.5,19.6,21.5,17.6,21.5z M11.4,19.6h12.5c0-0.3,0-0.5,0-0.7c-0.4-1.8-1.4-3.1-3.1-3.8c-2-0.8-4.1-0.8-6.1-0.1
	C12.6,15.7,11.4,17.5,11.4,19.6z"/>
<path class="st1" d="M17.6,12.6c-2.3,0-4.2-1.9-4.2-4.2c0-2.2,2-4.2,4.2-4.2c2.2,0,4.2,2,4.2,4.2C21.9,10.7,19.9,12.6,17.6,12.6
	L17.6,12.6z M17.6,6.1c-1.4,0-2.4,1.1-2.4,2.4c0,1.4,1.2,2.5,2.6,2.4c1.3,0,2.4-1.1,2.4-2.4C20.1,7.1,19,6.1,17.6,6.1L17.6,6.1z"/>
<path class="st1" d="M17.8,48.9c-0.9,0-1.8,0-2.7,0c-1.9,0-3-1.1-3-3c0-1,0-1.9,0-2.9c0-1,0.3-1.9,1.2-2.5c0.4-0.2,0.4-0.5,0.4-0.9
	c0-0.7,0.1-1.3,0.2-2c0.4-1.9,2.2-3.2,4.1-3.1c1.9,0.1,3.4,1.5,3.7,3.4c0,0.1,0,0.2,0,0.3c-0.1,1.1,0.1,2.1,1.1,2.8
	c0.4,0.3,0.5,1,0.6,1.5c0.1,1.2,0.1,2.3,0,3.5c0,1.5-1.1,2.6-2.6,2.7C19.8,48.9,18.8,48.8,17.8,48.9L17.8,48.9L17.8,48.9z
	 M17.8,47.1c0.9,0,1.8,0,2.7,0c0.9,0,1.2-0.2,1.2-1.2c0-1,0-2,0-3c0-1-0.3-1.2-1.2-1.2c-1.8,0-3.7,0-5.5,0c-0.9,0-1.1,0.2-1.1,1.1
	c0,1,0,2,0,3.1c0,0.9,0.3,1.1,1.2,1.1C16.1,47.1,16.9,47.1,17.8,47.1L17.8,47.1z M20,39.9c0.2-0.8,0.1-1.5-0.1-2.2
	c-0.3-0.9-1.1-1.3-2-1.4c-0.8-0.1-1.8,0.5-2.1,1.3c-0.3,0.7-0.3,1.5-0.1,2.3L20,39.9L20,39.9z"/>
</svg>
